# AST/ASF file generated using VICON BodyLanguage
# -----------------------------------------------
:version 1.10
:name VICON
:units
  mass 1.0
  length 0.45
  angle deg
:documentation
   .ast/.asf automatically generated from VICON data using
   VICON BodyBuilder and BodyLanguage model FoxedUp or BRILLIANT.MOD
:root
   order TX TY TZ RX RY RZ
   axis XYZ
   position 0 0 0  
   orientation 0 0 0 
:bonedata
  begin
     id 1 
     name lhipjoint
     direction 0.646657 -0.683706 0.338203 
     length 2.4948 
     axis 0 0 0  XYZ
  end
  begin
     id 2 
     name lfemur
     direction 0.34202 -0.939693 0  
     length 6.79491  
     axis 0 0 20  XYZ
    dof rx ry rz
    limits (-160.0 20.0)
           (-70.0 70.0)
           (-60.0 70.0)
  end
  begin
     id 3 
     name ltibia
     direction 0.34202 -0.939693 0   
     length 7.56807   
     axis 0 0 20   XYZ
    dof rx
    limits (-10.0 170.0)
  end
  begin
     id 4 
     name lfoot
     direction 0.0679796 -0.186772 0.980048   
     length 2.53018   
     axis -90 7.62852e-016 20   XYZ
    dof rx rz
    limits (-45.0 90.0)
           (-70.0 20.0)
  end
  begin
     id 5 
     name ltoes
     direction 1.53625e-011 -4.21881e-011 1   
     length 1.26912   
     axis -90 7.62852e-016 20   XYZ
    dof rx
    limits (-90.0 20.0)
  end
  begin
     id 6 
     name rhipjoint
     direction -0.618868 -0.704065 0.348274   
     length 2.42265  
     axis 0 0 0  XYZ 
  end
  begin
     id 7 
     name rfemur
     direction -0.34202 -0.939693 0   
     length 6.73814   
     axis 0 0 -20   XYZ
    dof rx ry rz
    limits (-160.0 20.0)
           (-70.0 70.0)
           (-70.0 60.0)
  end
  begin
     id 8 
     name rtibia
     direction -0.34202 -0.939693 0   
     length 7.66799   
     axis 0 0 -20   XYZ
    dof rx
    limits (-10.0 170.0)
 end
 begin
     id 9 
     name rfoot
     direction -0.0727352 -0.199838 0.977125   
     length 2.57224  
     axis -90 -7.62852e-016 -20   XYZ
    dof rx rz
    limits (-45.0 90.0)
           (-20.0 70.0)
  end
  begin
     id 10 
     name rtoes
     direction -1.53501e-011 -4.21858e-011 1   
     length 1.28858   
     axis -90 -7.62852e-016 -20   XYZ
    dof rx
    limits (-90.0 20.0)
  end
  begin
     id 11 
     name lowerback
     direction -0.0172471 0.995767 -0.0902851   
     length 2.20206   
     axis 0 0 0   XYZ
    dof rx ry rz
    limits (-20.0 45.0)
           (-30.0 30.0)
           (-30.0 30.0)
  end
  begin
     id 12 
     name upperback
     direction -0.000110737 0.999714 0.0239043   
     length 2.19523   
     axis 0 0 0   XYZ
    dof rx ry rz
    limits (-20.0 45.0)
           (-30.0 30.0)
           (-30.0 30.0)
  end
  begin
     id 13 
     name thorax
     direction 0.00704869 0.997783 0.0661741   
     length 2.21977   
     axis 0 0 0   XYZ
    dof rx ry rz
    limits (-20.0 45.0)
           (-30.0 30.0)
           (-30.0 30.0)
  end
  begin
     id 14 
     name lowerneck
     direction -0.00407501 0.995527 0.0943846   
     length 1.83142   
     axis 0 0 0   XYZ
    dof rx ry rz
    limits (-20.0 45.0)
           (-30.0 30.0)
           (-30.0 30.0)
  end
  begin
     id 15 
     name upperneck
     direction 0.0640586 0.986486 -0.150807   
     length 1.84616   
     axis 0 0 0   XYZ
    dof rx ry rz
    limits (-20.0 45.0)
           (-30.0 30.0)
           (-30.0 30.0)
  end
  begin
     id 16
     name head
     direction 0.0188017 0.99791 -0.0618239  
     length 1.85932  
     axis 0 0 0   XYZ
    dof rx ry rz
    limits (-20.0 45.0)
           (-30.0 30.0)
           (-30.0 30.0)
  end
  begin
     id 17 
     name lclavicle
     direction 0.976074 0.206905 0.066852  
     length 3.81043  
     axis 0 0 0   XYZ
    dof ry rz
    limits (-20.0 10.0)
           (0.0 20.0)
  end
  begin
     id 18 
     name lhumerus
     direction 1 -4.48971e-011 1.86916e-027   
     length 5.37587   
     axis 180 -30 -90   XYZ
    dof rx ry rz
    limits (-60.0 90.0)
           (-90.0 90.0)
           (-90.0 90.0)
  end
  begin
     id 19
     name lradius
     direction 1 -4.48968e-011 1.69187e-027   
     length 3.35977   
     axis 180 -30 -90   XYZ
    dof rx
    limits (-10.0 170.0)
  end
  begin
     id 20
     name lwrist
     direction 1 -4.48968e-011 5.8978e-027   
     length 1.67988   
     axis -3.27506e-015 90 90   XYZ
    dof ry
    limits (-180.0 0.0)
 end
  begin
     id 21 
     name lhand
     direction 1 -4.49028e-011 1.18071e-026   
     length 0.561859   
     axis -7.52654e-015 90 90   XYZ
    dof rx rz
    limits (-90.0 90.0)
           (-45.0 45.0)
  end
  begin
     id 22 
     name lfingers
     direction 1 -4.48927e-011 2.35758e-026   
     length 0.452985   
     axis -1.50534e-014 90 90   XYZ
    dof rx
    limits (0.0 90.0)
  end
  begin
     id 23
     name lthumb
     direction 0.707107 -6.34898e-011 0.707107   
     length 0.650399   
     axis -90 45 5.69224e-014   XYZ
    dof rx rz
    limits (-45.0 45.0)
           (-45.0 45.0)
  end
  begin
     id 24 
     name rclavicle
     direction -0.988403 0.151789 0.00439714   
     length 3.6942  
     axis 0 0 0   XYZ 
    dof ry rz
    limits (-10.0 20.0)
           (-20.0 0.0)
  end
  begin
     id 25 
     name rhumerus
     direction -1 -4.48978e-011 1.62495e-027  
     length 5.22819   
     axis 180 30 90   XYZ
    dof rx ry rz
    limits (-90.0 60.0)
           (-90.0 90.0)
           (-90.0 90.0)
  end
  begin
     id 26 
     name rradius
     direction -1 -4.48961e-011 3.47796e-027   
     length 3.40764   
     axis 180 30 90   XYZ
    dof rx
    limits (-10.0 170.0)
  end
  begin
     id 27 
     name rwrist
     direction -1 -4.48949e-011 5.89602e-027   
     length 1.70382   
     axis -3.27506e-015 -90 -90   XYZ
    dof ry
    limits (-180.0 0.0)
  end
  begin
     id 28
     name rhand
     direction -1 -4.48977e-011 1.17973e-026   
     length 0.583255   
     axis -7.52654e-015 -90 -90   XYZ
    dof rx rz
    limits (-90.0 90.0)
           (-45.0 45.0)
  end
  begin
     id 29
     name rfingers
     direction -1 -4.49099e-011 2.36408e-026   
     length 0.470235   
     axis -1.50534e-014 -90 -90   XYZ
    dof rx
    limits (0.0 90.0)
  end
  begin
     id 30
     name rthumb
     direction -0.707107 -6.35011e-011 0.707107   
     length 0.675167   
     axis -90 -45 -5.69224e-014   XYZ
    dof rx rz
    limits (-45.0 45.0)
           (-45.0 45.0)
  end
:hierarchy
  begin
    root lhipjoint rhipjoint lowerback
    lhipjoint lfemur
    lfemur ltibia
    ltibia lfoot
    lfoot ltoes
    rhipjoint rfemur
    rfemur rtibia
    rtibia rfoot
    rfoot rtoes
    lowerback upperback
    upperback thorax
    thorax lowerneck lclavicle rclavicle
    lowerneck upperneck
    upperneck head
    lclavicle lhumerus
    lhumerus lradius
    lradius lwrist
    lwrist lhand lthumb
    lhand lfingers
    rclavicle rhumerus
    rhumerus rradius
    rradius rwrist
    rwrist rhand rthumb
    rhand rfingers
  end

#!OML:ASF G:\JayActor3\Patient Classification 1\Patient 1\Session 2\male.ASF
:FULLY-SPECIFIED
:DEGREES
1129
root -38.1667 16.9625 -4.96645 1802.95 -7.15723 -1800.37
lowerback -3.06798 -1.15584 1.85159
upperback 2.82285 -1.71428 1.67863
thorax 4.63343 -0.821152 0.576219
lowerneck -10.2484 -1.53944 0.29523
upperneck 6.71096 -2.27924 1.92246
head 4.06739 -1.0216 0.438076
rclavicle -2.56432e-014 1.98785e-014
rhumerus -29.4703 -2.57837 -82.0972
rradius 26.1408
rwrist -4.55599
rhand -25.2442 5.22381
rfingers 7.12502
rthumb 1.27572 -24.7521
lclavicle -2.56432e-014 1.98785e-014
lhumerus -31.0895 9.22817 84.17
lradius 30.3595
lwrist 7.24504
lhand -19.1574 16.0809
lfingers 7.12502
lthumb 7.15325 45.94
rfemur -11.5827 -9.2701 23.1076
rtibia 31.1227
rfoot -24.8737 -11.5639
rtoes 13.9256
lfemur -16.1677 20.4562 -18.5603
ltibia 40.0387
lfoot -15.437 19.7306
ltoes -17.4126
1130
root -38.1829 16.9588 -4.96497 1803.01 -6.18046 -1800.42
lowerback -3.06188 -1.13419 1.89139
upperback 2.80514 -1.68666 1.68514
thorax 4.61067 -0.806295 0.562902
lowerneck -10.2907 -1.46864 0.400021
upperneck 6.76774 -2.19139 1.82035
head 4.09228 -0.979586 0.390687
rclavicle -9.93923e-016 -3.57812e-015
rhumerus -29.5026 -2.71652 -82.1974
rradius 26.0467
rwrist -4.49647
rhand -25.3201 5.26719
rfingers 7.12502
rthumb 1.2024 -24.7092
lclavicle -9.93923e-016 -3.57812e-015
lhumerus -31.0213 9.36329 84.1633
lradius 30.2082
lwrist 7.0227
lhand -19.328 16.1556
lfingers 7.12502
lthumb 6.98853 46.0202
rfemur -11.5975 -9.29655 23.308
rtibia 31.1945
rfoot -25.4835 -11.9758
rtoes 15.0022
lfemur -16.4195 21.0017 -18.9389
ltibia 39.5426
lfoot -14.6731 21.2833
ltoes -20.3931
1131
root -38.1975 16.9563 -4.96203 1803.05 -5.22071 -1800.45
lowerback -3.0566 -1.10936 1.90951
upperback 2.78947 -1.65373 1.69094
thorax 4.5911 -0.789488 0.561287
lowerneck -10.3481 -1.40056 0.48842
upperneck 6.85259 -2.10576 1.72031
head 4.13087 -0.938702 0.346624
rclavicle 2.51463e-014 -3.02153e-014
rhumerus -29.533 -2.84798 -82.283
rradius 25.9567
rwrist -4.43544
rhand -25.2998 5.27126
rfingers 7.12502
rthumb 1.22202 -24.705
lclavicle 2.51463e-014 -3.02153e-014
lhumerus -30.9706 9.48083 84.171
lradius 30.0653
lwrist 6.83763
lhand -19.5816 16.2369
lfingers 7.12502
lthumb 6.74373 46.1095
rfemur -11.5897 -9.38409 23.4715
rtibia 31.2542
rfoot -26.01 -12.4108
rtoes 15.5954
lfemur -16.6168 21.5088 -19.3318
ltibia 39.0185
lfoot -12.5051 23.0191
ltoes -25.6107
1132
root -38.21 16.954 -4.95667 1803.08 -4.29192 -1800.45
lowerback -3.06367 -1.08022 1.89659
upperback 2.77909 -1.6136 1.6875
thorax 4.58462 -0.769854 0.567693
lowerneck -10.3888 -1.31531 0.583677
upperneck 6.93813 -1.99609 1.6007
head 4.16616 -0.886885 0.296508
rclavicle -1.2921e-015 -1.66979e-014
rhumerus -29.563 -2.96051 -82.3651
rradius 25.8648
rwrist -4.34328
rhand -25.2968 5.27693
rfingers 7.12502
rthumb 1.2249 -24.6993
lclavicle -1.2921e-015 -1.66979e-014
lhumerus -30.9405 9.60262 84.1771
lradius 29.9247
lwrist 6.64715
lhand -19.6756 16.2742
lfingers 7.12502
lthumb 6.65299 46.1497
rfemur -11.5536 -9.52216 23.572
rtibia 31.3054
rfoot -26.4342 -12.8923
rtoes 15.603
lfemur -16.7536 22.0416 -19.7705
ltibia 38.4678
lfoot -9.06909 24.4738
ltoes -31.4834
1133
root -38.2202 16.952 -4.94914 1803.1 -3.38739 -1800.43
lowerback -3.09148 -1.04881 1.87605
upperback 2.77072 -1.57071 1.6822
thorax 4.59218 -0.748961 0.576218
lowerneck -10.3842 -1.20891 0.657408
upperneck 6.99767 -1.85318 1.47388
head 4.1833 -0.820179 0.250439
rclavicle 3.01159e-014 -7.95139e-016
rhumerus -29.5919 -3.05602 -82.4427
rradius 25.7765
rwrist -4.23142
rhand -25.3118 5.28179
rfingers 7.12502
rthumb 1.21045 -24.6945
lclavicle 3.01159e-014 -7.95139e-016
lhumerus -30.933 9.71414 84.1889
lradius 29.7972
lwrist 6.49058
lhand -19.6575 16.301
lfingers 7.12502
lthumb 6.67043 46.176
rfemur -11.5054 -9.71616 23.6348
rtibia 31.3547
rfoot -26.737 -13.4284
rtoes 14.98
lfemur -16.8471 22.5994 -20.2316
ltibia 37.8909
lfoot -4.69575 25.1173
ltoes -36.7484
